<svg xmlns="http://www.w3.org/2000/svg" x="0px" y="0px"
width="480" height="480"
viewBox="0 0 172 172"
style=" fill:#000000;"><g fill="none" fill-rule="nonzero" stroke="none" stroke-width="1" stroke-linecap="butt" stroke-linejoin="miter" stroke-miterlimit="10" stroke-dasharray="" stroke-dashoffset="0" font-family="none" font-weight="none" font-size="none" text-anchor="none" style="mix-blend-mode: normal"><path d="M0,172v-172h172v172z" fill="none"></path><g fill="#ffffff"><path d="M81.87077,14.33333c-1.74867,0 -3.25467,1.26828 -3.54134,2.99544l-2.02963,12.21973c-3.48836,0.59963 -6.86071,1.52672 -10.10612,2.72949l-7.89453,-9.57422c-1.11083,-1.3545 -3.04382,-1.70735 -4.56315,-0.82585l-7.13867,4.12923c-1.51933,0.87433 -2.18404,2.71919 -1.56771,4.35319l4.33919,11.58984c-2.69061,2.24231 -5.17631,4.72801 -7.41862,7.41862l-11.58984,-4.33919c-1.634,-0.61633 -3.47886,0.04838 -4.35319,1.56771l-4.12923,7.13867c-0.8815,1.51933 -0.52865,3.45232 0.82585,4.56315l9.57422,7.89453c-1.20278,3.24541 -2.12986,6.61776 -2.72949,10.10612l-12.21973,2.02963c-1.72717,0.29383 -2.99544,1.7855 -2.99544,3.54134v8.25847c0,1.74867 1.26828,3.25467 2.99544,3.54134l12.21973,2.02963c0.59963,3.48836 1.52672,6.86071 2.72949,10.10612l-9.57422,7.89453c-1.3545,1.11083 -1.70018,3.04382 -0.82585,4.56315l4.12923,7.13867c0.87433,1.51933 2.71919,2.18404 4.35319,1.56771l11.58984,-4.33919c2.24231,2.69061 4.72801,5.17631 7.41862,7.41862l-4.33919,11.58985c-0.61633,1.64117 0.05554,3.47886 1.56771,4.35319l7.13867,4.12923c1.51933,0.87433 3.45232,0.52148 4.56315,-0.82585l7.88053,-9.57422c3.24917,1.20502 6.62734,2.1291 10.12011,2.72949l2.02963,12.21973c0.29383,1.72717 1.7855,2.99544 3.54134,2.99544h8.25847c1.74867,0 3.25467,-1.26828 3.54134,-2.99544l2.02963,-12.21973c3.48836,-0.59964 6.86071,-1.52671 10.10612,-2.72949l7.89453,9.57422c1.11083,1.3545 3.04382,1.70018 4.56315,0.82585l7.13867,-4.12923c1.51933,-0.87433 2.18404,-2.71919 1.56771,-4.35319l-4.33919,-11.58985c2.69061,-2.24231 5.17631,-4.72801 7.41862,-7.41862l11.58985,4.33919c1.64117,0.61633 3.47886,-0.05554 4.35319,-1.56771l4.12923,-7.13867c0.87433,-1.51933 0.52148,-3.45232 -0.82585,-4.56315l-9.57422,-7.88053c1.20502,-3.24917 2.1291,-6.62734 2.72949,-10.12011l12.21973,-2.02963c1.72717,-0.29383 2.99544,-1.7855 2.99544,-3.54134v-8.25847c0,-1.74867 -1.26828,-3.25467 -2.99544,-3.54134l-12.21973,-2.02963c-0.59964,-3.48836 -1.52671,-6.86071 -2.72949,-10.10612l9.57422,-7.89453c1.3545,-1.11083 1.70018,-3.04382 0.82585,-4.56315l-4.12923,-7.13867c-0.87433,-1.51933 -2.71919,-2.18404 -4.35319,-1.56771l-11.58985,4.33919c-2.24231,-2.69061 -4.72801,-5.17631 -7.41862,-7.41862l4.33919,-11.58984c0.61633,-1.64117 -0.05554,-3.47886 -1.56771,-4.35319l-7.13867,-4.12923c-1.51933,-0.87433 -3.45232,-0.52149 -4.56315,0.82585l-7.88053,9.57422c-3.24917,-1.20502 -6.62734,-2.1291 -10.12011,-2.72949l-2.02963,-12.21973c-0.29383,-1.72717 -1.7855,-2.99544 -3.54134,-2.99544zM78.83333,43.64388v22.10189c-8.58466,3.03513 -14.32649,11.14883 -14.33333,20.25423c0.00036,1.31948 0.12218,2.63612 0.36393,3.93327l-19.14844,11.04395c-1.72484,-4.66558 -2.71549,-9.69548 -2.71549,-14.97722c0,-21.38431 15.44676,-38.95944 35.83333,-42.35612zM93.16667,43.64388c20.38658,3.39668 35.83333,20.97181 35.83333,42.35612c0,5.2881 -1.00068,10.32095 -2.72949,14.99121l-19.14844,-11.07194c0.24559,-1.29211 0.3721,-2.60404 0.37793,-3.91927c-0.01277,-9.10026 -5.75351,-17.20682 -14.33333,-20.24023zM99.95541,102.32097l19.21842,11.09993c-7.87271,9.5306 -19.78201,15.5791 -33.17383,15.5791c-13.39181,0 -25.30111,-6.0485 -33.17383,-15.5791l19.20442,-11.08594c3.89237,3.33104 8.84628,5.16269 13.9694,5.16504c5.12008,-0.00958 10.06868,-1.84606 13.95541,-5.17903z"></path></g></g></svg>